<svg width="714" height="807" viewBox="0 0 714 807" fill="none" xmlns="http://www.w3.org/2000/svg">
<circle cx="357" cy="357" r="327" stroke="white" stroke-width="60"/>
<path d="M322.129 690.308L266.871 484.082C253.341 433.584 250.822 390.98 259.314 356.267C274.095 295.218 307.253 257.789 358.788 243.981L428.309 225.353L429.004 227.947L420.669 274.664L370.605 288.079C338.438 296.698 318.021 322.187 309.353 364.546C304.859 386.509 306.195 414.325 313.363 447.992L460.704 408.512L461.399 411.106L453.065 457.824L324.66 492.23L367.755 653.06C367.755 653.06 353.411 665.244 324.723 689.613L322.129 690.308Z" fill="white"/>
<path d="M322.129 690.308L302.811 695.484C305.67 706.153 316.636 712.485 327.306 709.626L322.129 690.308ZM259.314 356.267L278.741 361.02C278.745 361.005 278.749 360.989 278.753 360.974L259.314 356.267ZM428.309 225.353L447.627 220.176C444.768 209.507 433.802 203.175 423.132 206.034L428.309 225.353ZM429.004 227.947L448.693 231.459C449.208 228.571 449.082 225.604 448.322 222.77L429.004 227.947ZM420.669 274.664L425.846 293.983C433.34 291.975 438.996 285.814 440.359 278.177L420.669 274.664ZM309.353 364.546L289.759 360.536L309.353 364.546ZM313.363 447.992L293.801 452.156C294.943 457.521 298.239 462.181 302.916 465.046C307.593 467.911 313.241 468.73 318.539 467.31L313.363 447.992ZM460.704 408.512L480.023 403.336C477.164 392.666 466.197 386.335 455.528 389.193L460.704 408.512ZM461.399 411.106L481.088 414.618C481.604 411.73 481.477 408.764 480.718 405.93L461.399 411.106ZM453.065 457.824L458.242 477.142C465.735 475.134 471.392 468.974 472.754 461.336L453.065 457.824ZM324.66 492.23L319.484 472.911C308.815 475.77 302.483 486.737 305.342 497.406L324.66 492.23ZM367.755 653.06L380.703 668.303C386.593 663.299 389.073 655.349 387.073 647.884L367.755 653.06ZM324.723 689.613L329.9 708.931C332.76 708.165 335.415 706.773 337.672 704.856L324.723 689.613ZM341.448 685.131L286.19 478.905L247.553 489.258L302.811 695.484L341.448 685.131ZM286.19 478.905C273.154 430.257 271.333 391.301 278.741 361.02L239.887 351.514C230.31 390.659 233.527 436.912 247.553 489.258L286.19 478.905ZM278.753 360.974C292.178 305.523 320.887 274.842 363.965 263.299L353.612 224.662C293.62 240.737 256.013 284.913 239.876 351.561L278.753 360.974ZM363.965 263.299L433.485 244.671L423.132 206.034L353.612 224.662L363.965 263.299ZM408.99 230.529L409.685 233.123L448.322 222.77L447.627 220.176L408.99 230.529ZM409.315 224.434L400.98 271.152L440.359 278.177L448.693 231.459L409.315 224.434ZM415.493 255.346L365.428 268.761L375.781 307.398L425.846 293.983L415.493 255.346ZM365.428 268.761C323.68 279.947 299.411 313.371 289.759 360.536L328.947 368.555C336.632 331.003 353.197 313.449 375.781 307.398L365.428 268.761ZM289.759 360.536C284.498 386.249 286.336 417.093 293.801 452.156L332.924 443.827C326.054 411.556 325.22 386.77 328.947 368.555L289.759 360.536ZM318.539 467.31L465.881 427.83L455.528 389.193L308.186 428.673L318.539 467.31ZM441.386 413.688L442.081 416.282L480.718 405.93L480.023 403.336L441.386 413.688ZM441.71 407.593L433.376 454.311L472.754 461.336L481.088 414.618L441.71 407.593ZM447.889 438.505L319.484 472.911L329.837 511.548L458.242 477.142L447.889 438.505ZM305.342 497.406L348.436 658.236L387.073 647.884L343.979 487.053L305.342 497.406ZM367.755 653.06C354.807 637.817 354.806 637.817 354.806 637.817C354.806 637.817 354.806 637.817 354.806 637.818C354.805 637.818 354.805 637.818 354.804 637.819C354.8 637.823 354.802 637.821 354.796 637.826C354.777 637.842 354.79 637.831 354.764 637.853C354.761 637.855 354.67 637.933 354.638 637.96C354.211 638.323 354.674 637.93 354.134 638.388C353.848 638.631 352.852 639.478 352.117 640.102C350.424 641.54 347.535 643.994 344.049 646.955C343.797 647.169 341.555 649.073 341.191 649.383C339.485 650.832 339.816 650.551 337.997 652.095C337.733 652.32 337.418 652.588 337.147 652.818C336.858 653.063 337.003 652.94 336.713 653.186C336.677 653.217 336.64 653.248 336.604 653.279C336.568 653.31 336.531 653.341 336.495 653.372C336.458 653.403 336.421 653.434 336.385 653.465C336.348 653.497 336.311 653.528 336.275 653.559C336.238 653.59 336.201 653.622 336.164 653.653C336.127 653.684 336.09 653.716 336.053 653.747C335.905 653.873 335.979 653.81 335.831 653.936C335.793 653.968 335.756 653.999 335.719 654.031C335.682 654.063 335.644 654.094 335.607 654.126C335.432 654.275 335.557 654.168 335.382 654.318C334.774 654.834 335.082 654.572 334.468 655.094C333.222 656.152 333.85 655.618 332.577 656.7C332.219 657.004 332.45 656.807 332.091 657.113C331.782 657.376 331.91 657.266 331.6 657.53C331.215 657.856 330.993 658.046 330.602 658.378C330.48 658.481 330.471 658.489 330.349 658.593C330.18 658.736 330.264 658.665 330.095 658.809C329.934 658.945 329.744 659.106 329.582 659.244C328.875 659.844 329.256 659.521 328.542 660.127C327.842 660.722 327.128 661.329 326.399 661.948C326.036 662.256 325.666 662.57 325.296 662.885C324.924 663.2 325.11 663.042 324.737 663.36C324.643 663.439 324.549 663.519 324.455 663.599C324.408 663.639 324.361 663.679 324.314 663.719C324.267 663.759 324.219 663.799 324.172 663.839C324.125 663.88 324.077 663.92 324.03 663.96C323.983 664 323.935 664.041 323.888 664.081C323.84 664.121 323.793 664.162 323.745 664.202C323.697 664.243 323.65 664.283 323.602 664.324C323.592 664.332 323.038 664.802 323.027 664.812C322.979 664.853 322.931 664.894 322.882 664.935C322.834 664.976 322.786 665.017 322.737 665.058C322.689 665.099 322.641 665.14 322.592 665.182C322.544 665.223 322.495 665.264 322.447 665.305C322.398 665.346 322.349 665.388 322.301 665.429C322.252 665.471 322.203 665.512 322.154 665.553C321.556 666.062 322.46 665.294 321.861 665.803C321.2 666.364 321.932 665.742 321.27 666.305C321.22 666.347 321.171 666.389 321.121 666.431C321.072 666.473 321.022 666.515 320.972 666.557C320.923 666.6 320.873 666.642 320.823 666.684C320.773 666.726 320.724 666.769 320.674 666.811C319.958 667.419 320.189 667.223 319.466 667.837C319.062 668.18 318.647 668.533 318.236 668.881C317.384 669.605 318.468 668.685 317.614 669.41C317.381 669.608 317.221 669.744 316.986 669.943C316.934 669.988 316.881 670.033 316.828 670.077C316.776 670.122 316.723 670.167 316.67 670.212C316.348 670.486 316.676 670.207 316.353 670.481C315.916 670.853 316.154 670.65 315.715 671.023C314.404 672.137 315.741 671.001 314.423 672.121C314.369 672.167 314.314 672.213 314.26 672.259C314.205 672.306 314.151 672.352 314.096 672.398C314.042 672.444 313.987 672.491 313.933 672.537C313.878 672.584 313.824 672.63 313.769 672.676C313.528 672.881 313.352 673.03 313.11 673.236C313.054 673.283 312.999 673.33 312.944 673.377C312.889 673.424 312.833 673.471 312.778 673.518C312.556 673.706 312.667 673.612 312.445 673.801C311.988 674.189 312.234 673.98 311.775 674.37L337.672 704.856C337.735 704.801 340.283 702.637 340.319 702.607C340.563 702.4 340.726 702.261 340.968 702.056C341.641 701.484 340.94 702.079 341.611 701.509C342.25 700.966 341.292 701.78 341.931 701.238C341.984 701.192 342.037 701.147 342.09 701.102C342.143 701.057 342.196 701.012 342.249 700.967C342.302 700.922 342.355 700.877 342.408 700.832C342.461 700.787 342.514 700.742 342.567 700.698C343.641 699.785 341.809 701.341 342.882 700.429C343.432 699.962 343.59 699.828 344.133 699.367C345.147 698.506 343.737 699.703 344.75 698.843C344.801 698.8 344.852 698.756 344.903 698.713C344.954 698.669 345.005 698.626 345.056 698.583C345.107 698.539 345.158 698.496 345.209 698.453C345.26 698.41 345.311 698.366 345.362 698.323C345.598 698.122 345.733 698.008 345.968 697.808C345.98 697.798 346.259 697.561 346.27 697.552C346.32 697.509 346.37 697.467 346.42 697.424C346.47 697.382 346.52 697.339 346.57 697.297C347.41 696.583 346.923 696.997 347.757 696.289C348.445 695.705 348.243 695.876 348.923 695.298C349.866 694.497 349.133 695.12 350.068 694.325C350.74 693.754 351.651 692.98 352.295 692.433C353.19 691.674 355.716 689.528 356.498 688.864C359.825 686.037 361.014 685.027 363.894 682.581C364.391 682.159 364.233 682.293 364.724 681.876C365.351 681.344 364.912 681.716 365.533 681.189C366.005 680.788 366.643 680.246 367.087 679.868C367.23 679.747 367.697 679.35 367.833 679.235C368.346 678.8 368.053 679.048 368.558 678.619C368.714 678.487 368.581 678.6 368.736 678.468C368.948 678.288 368.701 678.498 368.913 678.318C368.991 678.251 369.186 678.086 369.262 678.021C369.668 677.676 369.202 678.072 369.606 677.729C369.723 677.629 369.66 677.684 369.776 677.584C369.833 677.536 369.889 677.489 369.945 677.441C370.098 677.311 372.425 675.335 372.466 675.299C373.334 674.563 373.896 674.085 374.651 673.443C376.495 671.877 374.769 673.344 376.5 671.873C376.674 671.725 377.952 670.639 378.013 670.587C378.063 670.545 378.296 670.347 378.339 670.311C378.352 670.3 378.365 670.289 378.378 670.278C378.391 670.266 378.404 670.255 378.417 670.244C378.43 670.233 378.443 670.223 378.456 670.212C378.468 670.201 378.481 670.19 378.494 670.179C378.507 670.168 378.519 670.158 378.532 670.147C378.544 670.136 378.557 670.126 378.569 670.115C378.652 670.045 378.562 670.121 378.644 670.052C379.188 669.589 378.673 670.027 379.19 669.588C379.663 669.186 379.669 669.181 380.03 668.874C380.063 668.846 380.162 668.762 380.188 668.74C380.34 668.611 380.179 668.748 380.324 668.624C380.374 668.582 380.397 668.562 380.44 668.526C380.459 668.51 380.522 668.456 380.535 668.446C380.538 668.443 380.542 668.44 380.545 668.437C380.548 668.434 380.552 668.431 380.555 668.428C380.557 668.427 380.573 668.413 380.574 668.412C380.577 668.41 380.58 668.407 380.583 668.405C380.586 668.402 380.589 668.4 380.592 668.397C380.6 668.39 380.6 668.39 380.608 668.383C380.621 668.373 380.655 668.343 380.661 668.339C380.683 668.319 380.658 668.341 380.679 668.323C380.69 668.314 380.683 668.319 380.692 668.312C380.697 668.308 380.693 668.312 380.697 668.308C380.699 668.306 380.698 668.307 380.7 668.305C380.7 668.305 380.701 668.304 380.701 668.304C380.702 668.304 380.702 668.304 380.702 668.303C380.702 668.303 380.702 668.303 380.703 668.303C380.703 668.303 380.703 668.303 367.755 653.06ZM319.547 670.294L316.953 670.989L327.306 709.626L329.9 708.931L319.547 670.294Z" fill="white"/>
</svg>
